<svg width="28" height="29" viewBox="0 0 28 29" fill="none" xmlns="http://www.w3.org/2000/svg">
<path d="M13.9996 28.5834C13.6451 28.5834 13.3483 28.4635 13.1092 28.2238C12.8697 27.9843 12.75 27.6875 12.75 27.3334V15.3559C11.0792 15.3559 9.47762 15.0396 7.9454 14.4071C6.41346 13.7746 5.05985 12.8707 3.88457 11.6955C2.70957 10.5202 1.81276 9.16657 1.19415 7.63462C0.575541 6.10268 0.266235 4.50115 0.266235 2.83004V1.80463C0.266235 1.3824 0.409013 1.02838 0.694569 0.742543C0.980124 0.456988 1.33415 0.314209 1.75665 0.314209H2.78207C4.41679 0.314209 5.99957 0.633099 7.5304 1.27088C9.06151 1.90865 10.4146 2.81518 11.5896 3.99046C12.4615 4.8624 13.1768 5.83629 13.7354 6.91213C14.2943 7.98796 14.6944 9.1306 14.9358 10.34C15.128 10.0067 15.3422 9.69088 15.5783 9.39254C15.8144 9.09449 16.0779 8.80018 16.3687 8.50962C17.5404 7.33629 18.8943 6.43032 20.4304 5.79171C21.9665 5.15282 23.5676 4.83338 25.2337 4.83338H26.2596C26.6818 4.83338 27.0357 4.97629 27.3212 5.26213C27.6071 5.54768 27.75 5.90157 27.75 6.32379V7.34921C27.75 9.0156 27.4305 10.6168 26.7917 12.153C26.153 13.6891 25.2471 15.043 24.0737 16.2146C22.8985 17.3899 21.5518 18.2868 20.0337 18.9055C18.5154 19.5241 16.9208 19.8334 15.25 19.8334V27.3334C15.25 27.6875 15.1301 27.9843 14.8904 28.2238C14.6507 28.4635 14.3537 28.5834 13.9996 28.5834ZM12.7662 12.8142C12.7662 11.4809 12.5093 10.21 11.9954 9.00171C11.4815 7.79338 10.7523 6.71699 9.8079 5.77254C8.86346 4.8281 7.78707 4.09893 6.57874 3.58504C5.3704 3.07115 4.09957 2.81421 2.76624 2.81421C2.76624 4.14754 3.01624 5.42532 3.51624 6.64754C4.01624 7.86976 4.73846 8.9531 5.6829 9.89754C6.62735 10.842 7.71068 11.5642 8.9329 12.0642C10.1551 12.5642 11.4329 12.8142 12.7662 12.8142ZM15.25 17.3334C16.5833 17.3334 17.8542 17.0834 19.0625 16.5834C20.2708 16.0834 21.3472 15.3612 22.2917 14.4167C23.2361 13.4723 23.9653 12.3889 24.4792 11.1667C24.993 9.94449 25.25 8.66671 25.25 7.33338C23.9167 7.33338 22.6389 7.59032 21.4167 8.10421C20.1944 8.6181 19.1111 9.34727 18.1667 10.2917C17.2222 11.2362 16.5 12.3125 16 13.5209C15.5 14.7292 15.25 16 15.25 17.3334Z" fill="#121212"/>
</svg>
