<svg width="32" height="32" viewBox="0 0 32 32" fill="none" xmlns="http://www.w3.org/2000/svg">
<path d="M12.6667 14.205C13.1025 14.205 13.4679 14.0576 13.7629 13.7629C14.0576 13.4679 14.205 13.1025 14.205 12.6666C14.205 12.2308 14.0576 11.8654 13.7629 11.5704C13.4679 11.2757 13.1025 11.1283 12.6667 11.1283C12.2308 11.1283 11.8654 11.2757 11.5704 11.5704C11.2757 11.8654 11.1283 12.2308 11.1283 12.6666C11.1283 13.1025 11.2757 13.4679 11.5704 13.7629C11.8654 14.0576 12.2308 14.205 12.6667 14.205ZM12.6667 20.8716C13.1025 20.8716 13.4679 20.7243 13.7629 20.4295C14.0576 20.1345 14.205 19.7691 14.205 19.3333C14.205 18.8975 14.0576 18.532 13.7629 18.237C13.4679 17.9423 13.1025 17.795 12.6667 17.795C12.2308 17.795 11.8654 17.9423 11.5704 18.237C11.2757 18.532 11.1283 18.8975 11.1283 19.3333C11.1283 19.7691 11.2757 20.1345 11.5704 20.4295C11.8654 20.7243 12.2308 20.8716 12.6667 20.8716ZM7.66666 13.5C7.88888 13.5 8.08332 13.4166 8.24999 13.25C8.41666 13.0833 8.49999 12.8888 8.49999 12.6666C8.49999 12.4444 8.41666 12.25 8.24999 12.0833C8.08332 11.9166 7.88888 11.8333 7.66666 11.8333C7.44443 11.8333 7.24999 11.9166 7.08332 12.0833C6.91666 12.25 6.83332 12.4444 6.83332 12.6666C6.83332 12.8888 6.91666 13.0833 7.08332 13.25C7.24999 13.4166 7.44443 13.5 7.66666 13.5ZM12.6667 25.1666C12.8889 25.1666 13.0833 25.0833 13.25 24.9166C13.4167 24.75 13.5 24.5555 13.5 24.3333C13.5 24.1111 13.4167 23.9166 13.25 23.75C13.0833 23.5833 12.8889 23.5 12.6667 23.5C12.4444 23.5 12.25 23.5833 12.0833 23.75C11.9167 23.9166 11.8333 24.1111 11.8333 24.3333C11.8333 24.5555 11.9167 24.75 12.0833 24.9166C12.25 25.0833 12.4444 25.1666 12.6667 25.1666ZM7.66666 20.1666C7.88888 20.1666 8.08332 20.0833 8.24999 19.9166C8.41666 19.75 8.49999 19.5555 8.49999 19.3333C8.49999 19.1111 8.41666 18.9166 8.24999 18.75C8.08332 18.5833 7.88888 18.5 7.66666 18.5C7.44443 18.5 7.24999 18.5833 7.08332 18.75C6.91666 18.9166 6.83332 19.1111 6.83332 19.3333C6.83332 19.5555 6.91666 19.75 7.08332 19.9166C7.24999 20.0833 7.44443 20.1666 7.66666 20.1666ZM12.6667 8.49996C12.8889 8.49996 13.0833 8.41663 13.25 8.24996C13.4167 8.08329 13.5 7.88885 13.5 7.66663C13.5 7.4444 13.4167 7.24996 13.25 7.08329C13.0833 6.91663 12.8889 6.83329 12.6667 6.83329C12.4444 6.83329 12.25 6.91663 12.0833 7.08329C11.9167 7.24996 11.8333 7.4444 11.8333 7.66663C11.8333 7.88885 11.9167 8.08329 12.0833 8.24996C12.25 8.41663 12.4444 8.49996 12.6667 8.49996ZM19.3333 14.205C19.7692 14.205 20.1346 14.0576 20.4296 13.7629C20.7243 13.4679 20.8717 13.1025 20.8717 12.6666C20.8717 12.2308 20.7243 11.8654 20.4296 11.5704C20.1346 11.2757 19.7692 11.1283 19.3333 11.1283C18.8975 11.1283 18.5321 11.2757 18.2371 11.5704C17.9424 11.8654 17.795 12.2308 17.795 12.6666C17.795 13.1025 17.9424 13.4679 18.2371 13.7629C18.5321 14.0576 18.8975 14.205 19.3333 14.205ZM19.3333 8.49996C19.5555 8.49996 19.75 8.41663 19.9167 8.24996C20.0833 8.08329 20.1667 7.88885 20.1667 7.66663C20.1667 7.4444 20.0833 7.24996 19.9167 7.08329C19.75 6.91663 19.5555 6.83329 19.3333 6.83329C19.1111 6.83329 18.9167 6.91663 18.75 7.08329C18.5833 7.24996 18.5 7.4444 18.5 7.66663C18.5 7.88885 18.5833 8.08329 18.75 8.24996C18.9167 8.41663 19.1111 8.49996 19.3333 8.49996ZM24.3333 20.1666C24.5555 20.1666 24.75 20.0833 24.9167 19.9166C25.0833 19.75 25.1667 19.5555 25.1667 19.3333C25.1667 19.1111 25.0833 18.9166 24.9167 18.75C24.75 18.5833 24.5555 18.5 24.3333 18.5C24.1111 18.5 23.9167 18.5833 23.75 18.75C23.5833 18.9166 23.5 19.1111 23.5 19.3333C23.5 19.5555 23.5833 19.75 23.75 19.9166C23.9167 20.0833 24.1111 20.1666 24.3333 20.1666ZM24.3333 13.5C24.5555 13.5 24.75 13.4166 24.9167 13.25C25.0833 13.0833 25.1667 12.8888 25.1667 12.6666C25.1667 12.4444 25.0833 12.25 24.9167 12.0833C24.75 11.9166 24.5555 11.8333 24.3333 11.8333C24.1111 11.8333 23.9167 11.9166 23.75 12.0833C23.5833 12.25 23.5 12.4444 23.5 12.6666C23.5 12.8888 23.5833 13.0833 23.75 13.25C23.9167 13.4166 24.1111 13.5 24.3333 13.5ZM16.0029 31.8333C13.8129 31.8333 11.7544 31.4177 9.82749 30.5866C7.90054 29.7555 6.22443 28.6276 4.79916 27.2029C3.37388 25.7782 2.24541 24.1027 1.41374 22.1766C0.582351 20.2505 0.166656 18.1926 0.166656 16.0029C0.166656 13.8129 0.582212 11.7544 1.41332 9.82746C2.24443 7.90051 3.37235 6.2244 4.79707 4.79913C6.2218 3.37385 7.89721 2.24538 9.82332 1.41371C11.7494 0.58232 13.8074 0.166626 15.9971 0.166626C18.1871 0.166626 20.2455 0.582181 22.1725 1.41329C24.0994 2.2444 25.7755 3.37232 27.2008 4.79704C28.6261 6.22177 29.7546 7.89718 30.5862 9.82329C31.4176 11.7494 31.8333 13.8073 31.8333 15.997C31.8333 18.187 31.4178 20.2455 30.5867 22.1725C29.7555 24.0994 28.6276 25.7755 27.2029 27.2008C25.7782 28.6261 24.1028 29.7545 22.1767 30.5862C20.2505 31.4176 18.1926 31.8333 16.0029 31.8333ZM16 29.3333C19.7222 29.3333 22.875 28.0416 25.4583 25.4583C28.0417 22.875 29.3333 19.7222 29.3333 16C29.3333 12.2777 28.0417 9.12496 25.4583 6.54163C22.875 3.95829 19.7222 2.66663 16 2.66663C12.2778 2.66663 9.12499 3.95829 6.54166 6.54163C3.95832 9.12496 2.66666 12.2777 2.66666 16C2.66666 19.7222 3.95832 22.875 6.54166 25.4583C9.12499 28.0416 12.2778 29.3333 16 29.3333ZM19.3333 25.1666C19.5555 25.1666 19.75 25.0833 19.9167 24.9166C20.0833 24.75 20.1667 24.5555 20.1667 24.3333C20.1667 24.1111 20.0833 23.9166 19.9167 23.75C19.75 23.5833 19.5555 23.5 19.3333 23.5C19.1111 23.5 18.9167 23.5833 18.75 23.75C18.5833 23.9166 18.5 24.1111 18.5 24.3333C18.5 24.5555 18.5833 24.75 18.75 24.9166C18.9167 25.0833 19.1111 25.1666 19.3333 25.1666ZM19.3333 20.8716C19.7692 20.8716 20.1346 20.7243 20.4296 20.4295C20.7243 20.1345 20.8717 19.7691 20.8717 19.3333C20.8717 18.8975 20.7243 18.532 20.4296 18.237C20.1346 17.9423 19.7692 17.795 19.3333 17.795C18.8975 17.795 18.5321 17.9423 18.2371 18.237C17.9424 18.532 17.795 18.8975 17.795 19.3333C17.795 19.7691 17.9424 20.1345 18.2371 20.4295C18.5321 20.7243 18.8975 20.8716 19.3333 20.8716Z" fill="#1C1B1F"/>
</svg>
