<svg width="94" height="32" viewBox="0 0 94 32" fill="none" xmlns="http://www.w3.org/2000/svg">
<path d="M82.3197 23.9739V21.4595L88.9865 17.5608L82.3197 13.6622V11.1478L91.9163 16.7765V18.3452L82.3197 23.9739Z" fill="black"/>
<path d="M72.4214 24.2508C71.0835 24.2508 70.0377 23.9432 69.2841 23.328C68.5459 22.6975 68.1768 21.8209 68.1768 20.6982C68.1768 19.6216 68.5305 18.7989 69.238 18.2298C69.9608 17.6608 70.9989 17.3763 72.3522 17.3763H75.7895V17.1687C75.7895 16.3997 75.6049 15.8538 75.2358 15.5308C74.8667 15.1925 74.2516 15.0233 73.3903 15.0233C72.037 15.0233 70.7759 15.3616 69.6071 16.0383L68.7997 13.8468C70.2299 13.0932 71.8601 12.7164 73.6902 12.7164C75.3512 12.7164 76.5661 13.0625 77.3351 13.7545C78.1194 14.4466 78.5116 15.5308 78.5116 17.0072V23.9739H76.5046L76.2739 23.0281C75.6741 23.4587 75.059 23.774 74.4284 23.9739C73.8133 24.1585 73.1443 24.2508 72.4214 24.2508ZM72.9982 21.9439C74.0439 21.9439 74.9744 21.7132 75.7895 21.2518V19.4294H72.606C72.0216 19.4294 71.5987 19.5294 71.3372 19.7293C71.0758 19.9138 70.9451 20.206 70.9451 20.6059C70.9451 21.0519 71.1065 21.3902 71.4295 21.6209C71.7678 21.8362 72.2907 21.9439 72.9982 21.9439Z" fill="black"/>
<path d="M55.395 23.9739V7.59518H58.1171V17.6531L62.7539 12.9932H66.2603L61.6696 17.3994L66.3756 23.9739H63.0307L59.7088 19.291L58.1171 20.8366V23.9739H55.395Z" fill="black"/>
<path d="M45.4736 23.9739V15.4385H41.229V12.9932H48.1957V21.5286H52.4404V23.9739H45.4736ZM46.604 11.0093C46.0811 11.0093 45.6428 10.8325 45.2891 10.4788C44.9354 10.125 44.7585 9.68674 44.7585 9.16385C44.7585 8.64096 44.9354 8.20266 45.2891 7.84894C45.6428 7.49522 46.0811 7.31836 46.604 7.31836C47.1269 7.31836 47.5652 7.49522 47.9189 7.84894C48.2726 8.20266 48.4495 8.64096 48.4495 9.16385C48.4495 9.68674 48.2726 10.125 47.9189 10.4788C47.5652 10.8325 47.1269 11.0093 46.604 11.0093Z" fill="black"/>
<path d="M31.6307 23.9739V15.4385H28.4241V12.9932H31.6307V11.5399C31.6307 10.1712 32.0152 9.1254 32.7841 8.40259C33.5684 7.67977 34.6988 7.31836 36.1752 7.31836C37.4978 7.31836 38.7127 7.61825 39.82 8.21804L39.128 10.5249C38.3129 10.0481 37.467 9.80977 36.5904 9.80977C35.8215 9.80977 35.2525 9.98663 34.8834 10.3404C34.5296 10.6787 34.3528 11.217 34.3528 11.9552V12.9932H38.5051V15.4385H34.3528V23.9739H31.6307Z" fill="black"/>
<path d="M14.4427 25.358L23.3011 7.59518H25.7002L16.8419 25.358H14.4427Z" fill="black"/>
<path d="M11.3497 23.9739L1.75317 18.3452V16.7765L11.3497 11.1478V13.6622L4.68289 17.5608L11.3497 21.4595V23.9739Z" fill="black"/>
</svg>
