<svg width="40" height="40" viewBox="0 0 40 40" fill="none" xmlns="http://www.w3.org/2000/svg">
<mask id="mask0_110_338" style="mask-type:alpha" maskUnits="userSpaceOnUse" x="0" y="0" width="40" height="40">
<rect width="40" height="40" fill="#D9D9D9"/>
</mask>
<g mask="url(#mask0_110_338)">
<path d="M19.9971 26.2179C21.2254 26.2179 22.3204 25.8487 23.2821 25.1104C24.2435 24.3723 24.9443 23.4316 25.3846 22.2883H14.6154C15.0557 23.4316 15.7556 24.3723 16.715 25.1104C17.6747 25.8487 18.7688 26.2179 19.9971 26.2179ZM16.1575 19.9358C16.7642 19.9358 17.2785 19.7236 17.7004 19.2991C18.1224 18.8747 18.3333 18.3591 18.3333 17.7525C18.3333 17.1461 18.1211 16.6319 17.6967 16.21C17.2719 15.788 16.7564 15.577 16.15 15.577C15.5436 15.577 15.0294 15.7893 14.6075 16.2137C14.1856 16.6382 13.9746 17.1536 13.9746 17.76C13.9746 18.3666 14.1868 18.8809 14.6113 19.3029C15.0357 19.7248 15.5511 19.9358 16.1575 19.9358ZM23.85 19.9358C24.4564 19.9358 24.9706 19.7236 25.3925 19.2991C25.8144 18.8747 26.0254 18.3591 26.0254 17.7525C26.0254 17.1461 25.8132 16.6319 25.3888 16.21C24.9643 15.788 24.4489 15.577 23.8425 15.577C23.2358 15.577 22.7215 15.7893 22.2996 16.2137C21.8776 16.6382 21.6667 17.1536 21.6667 17.76C21.6667 18.3666 21.8789 18.8809 22.3033 19.3029C22.7281 19.7248 23.2436 19.9358 23.85 19.9358ZM13.125 11.2437L17.6312 5.32996C17.9304 4.92968 18.2857 4.63579 18.6971 4.44829C19.1085 4.26052 19.5428 4.16663 20 4.16663C20.4572 4.16663 20.8915 4.26052 21.3029 4.44829C21.7143 4.63579 22.0696 4.92968 22.3687 5.32996L26.875 11.2437L33.7658 13.5704C34.4242 13.782 34.9375 14.1552 35.3058 14.69C35.6744 15.225 35.8587 15.8158 35.8587 16.4625C35.8587 16.7611 35.8151 17.0587 35.7279 17.3554C35.6407 17.652 35.4974 17.9363 35.2979 18.2083L30.8108 24.4358L30.9775 31.045C31.0053 31.9225 30.716 32.662 30.1096 33.2637C29.5035 33.8657 28.7971 34.1666 27.9904 34.1666C27.9668 34.1666 27.6879 34.1302 27.1538 34.0575L20 32.0062L12.8462 34.0575C12.7074 34.113 12.564 34.1451 12.4162 34.1537C12.2685 34.1623 12.1329 34.1666 12.0096 34.1666C11.1954 34.1666 10.4871 33.8657 9.88458 33.2637C9.28208 32.662 8.99472 31.9225 9.0225 31.045L9.18917 24.3941L4.7275 18.2083C4.52805 17.9352 4.38472 17.6498 4.2975 17.352C4.21028 17.054 4.16667 16.7561 4.16667 16.4583C4.16667 15.8297 4.34972 15.2451 4.71583 14.7045C5.08194 14.164 5.59333 13.7807 6.25 13.5545L13.125 11.2437ZM14.67 13.3975L7.05125 15.9358C6.89097 15.9891 6.78153 16.0987 6.72292 16.2645C6.66403 16.4301 6.68806 16.5823 6.795 16.7212L11.705 23.6508L11.5225 31.0962C11.5117 31.2779 11.5757 31.422 11.7146 31.5287C11.8535 31.6357 12.0085 31.6625 12.1796 31.6091L20 29.4133L27.8204 31.6508C27.9915 31.7041 28.1465 31.6773 28.2854 31.5704C28.4243 31.4637 28.4883 31.3195 28.4775 31.1379L28.295 23.6508L33.205 16.8045C33.3119 16.6657 33.336 16.5134 33.2771 16.3479C33.2185 16.182 33.109 16.0725 32.9488 16.0191L25.33 13.3975L20.4008 6.89121C20.3044 6.75204 20.1708 6.68246 20 6.68246C19.8292 6.68246 19.6956 6.75204 19.5992 6.89121L14.67 13.3975Z" fill="#121212"/>
</g>
</svg>
